<?xml version="1.0" encoding="utf-8"?>
<!-- Generator: Adobe Illustrator 16.0.0, SVG Export Plug-In . SVG Version: 6.00 Build 0)  -->
<!DOCTYPE svg PUBLIC "-//W3C//DTD SVG 1.1//EN" "http://www.w3.org/Graphics/SVG/1.1/DTD/svg11.dtd">
<svg version="1.1" id="Layer_1" xmlns="http://www.w3.org/2000/svg" xmlns:xlink="http://www.w3.org/1999/xlink" x="0px" y="0px"
	 width="841.89px" height="595.276px" viewBox="0 0 841.89 595.276" enable-background="new 0 0 841.89 595.276"
	 xml:space="preserve">
<g>
	<defs>
		<rect id="SVGID_1_" width="841.89" height="595.276"/>
	</defs>
	<clipPath id="SVGID_2_">
		<use xlink:href="#SVGID_1_"  overflow="visible"/>
	</clipPath>
	<path clip-path="url(#SVGID_2_)" fill="#D17352" d="M696.001,450.655c-2.37-2.355-3.454-3.772-3.916-4.461V257.282
		c0.681-0.83,1.928-2.158,3.727-3.967l29.099-29.26h-29.562v-7.311v-16.575h-54.296v-27.771h-6.298V54.026h60.594V31.611H146.614
		v22.415h60.594v118.372h-6.299v27.771h-54.295v16.575v7.311h-29.476l28.736,28.983c0.513,0.516,1.036,1.034,1.562,1.552
		c0.531,0.524,1.849,1.827,2.721,2.785v69.25c-0.379,0.425-1.057,1.136-2.251,2.324c0,0-0.824,0.819-1.19,1.189l-11.236,11.327
		l10.588,11.937c0.579,0.653,1.157,1.289,1.727,1.914c1.069,1.176,1.859,2.076,2.362,2.692v87.974
		c-0.553,0.768-1.748,2.245-4.181,4.659l-29.322,29.084h37.117v69.367h17.008c18.071,0,35.13-5.091,51.641-10.017
		c8.648-2.581,16.92-5.05,24.885-6.672v2.379l11.852,3.771c52.367,16.662,106.813,25.111,161.824,25.111
		c55.013,0,109.458-8.449,161.826-25.111l11.852-3.771v-2.577c7.969,1.623,16.247,4.093,24.901,6.676
		c16.497,4.922,33.554,10.012,51.623,10.012h17.008v-69.168h37.046L696.001,450.655z M272.845,199.359l-0.581,0.81h-27.361
		c1.574-4.73,3.351-9.368,5.287-13.92c4.325,4.629,12.093,8.963,22.655,12.853V199.359z M291.057,146.392
		c-9.878,3.338-18.375,6.948-25.24,10.681c7.311-11.129,15.773-21.434,25.24-30.722V146.392z M291.057,94.294
		c-31.898,25.227-56.274,59.536-69.25,99.019v-20.915h-6.297V54.026h75.547V94.294z M374.906,129.761
		c-28.84,2.692-54.702,7.736-75.547,13.99v-25.067c21.435-18.621,47.183-32.399,75.547-39.648V129.761z M374.906,54.265
		c-27.646,6.2-53.222,17.871-75.547,33.803V54.026h75.547V54.265z M458.755,129.058c-12.164-0.925-24.801-1.432-37.774-1.432
		c-12.971,0-25.606,0.508-37.772,1.433V77.118c12.197-2.523,24.828-3.858,37.772-3.858c12.945,0,25.576,1.335,37.774,3.858V129.058z
		 M542.604,143.762c-20.839-6.259-46.698-11.305-75.547-13.999V79.037c28.364,7.248,54.113,21.027,75.547,39.647V143.762z
		 M542.604,88.069c-22.324-15.932-47.9-27.603-75.547-33.804v-0.239h75.547V88.069z M550.906,126.351
		c9.48,9.3,17.951,19.621,25.269,30.766c-6.864-3.742-15.374-7.362-25.269-10.71V126.351z M570.378,200.169l-0.699-0.93v-0.371
		c10.279-3.844,17.844-8.115,22.073-12.672c1.944,4.57,3.727,9.224,5.307,13.973H570.378z M626.453,172.398h-6.297v20.915
		c-12.976-39.482-37.353-73.792-69.25-99.018V54.026h75.547V172.398z"/>
	<path clip-path="url(#SVGID_2_)" fill="#FFFFFF" d="M549.578,337.457c-7.666-8.638-18.926-18.501-30.499-21.545
		c5.469-3.281,8.607-4.647,8.608-9.366V294.19c-7.336-0.139-14.707-0.263-22.106-0.373c-0.07,15.802-0.142,31.609-0.212,47.419
		c9.728-0.467,19.403-1.012,29.016-1.64c-4.179,8.114-8.37,16.399-12.573,24.823c-5.463,0.605-10.944,1.168-16.442,1.688v63.929
		c7.4-1.223,14.772-2.605,22.108-4.151c0-8.991,0.001-17.978-0.209-25.586c-0.001-8.095-0.21-13.226-1.048-21.675
		c7.975,3.997,19.866,8.486,29.979,8.968c-3.097,3.573-6.413,7.895-6.621,11.815c-0.206,16.821-0.206,14.254,0,32.052
		c0,4.096,3.524,6.933,6.621,9.092c-26.228,8.522-53.062,14.496-80.14,17.921c3.199-4.003,6.818-8.788,6.818-13.314v-77.961
		c0-6.197-2.98-8.42-6.391-12.116c3.41-4.219,6.391-7.914,6.391-12.917v-61.51c0-4.765-3.619-8.92-6.818-12.619
		c27.078,0.826,53.912,2.265,80.14,4.318c-3.097,2.927-6.827,6.357-6.827,10.672C549.439,301.177,549.51,319.321,549.578,337.457"/>
	<path clip-path="url(#SVGID_2_)" fill="#FFFFFF" d="M455.768,355.537c-3.21,3.974-5.994,6.233-6.422,11.854v81.926
		c0.643,4.354,4.067,8.034,7.063,11.191c-27.388,2.211-54.934,1.834-82.267-1.133c3.203-3.507,6.837-7.306,6.837-12.156v-79.726
		c-0.214-5.825-2.992-8.345-6.196-12.317c3.203-3.75,6.196-7.554,6.196-12.401v-62.279c0.001-4.849-3.635-9.145-6.837-12.677
		c12.385-0.324,24.814-0.52,37.253-0.587c-3.217,3.693-6.862,8.128-6.862,13.021v62.653c0,5.138,3.001,9.088,6.218,13.034
		c-3.431,4.14-6.218,6.545-6.218,12.907v66.569c7.217,0.312,14.44,0.475,21.661,0.489v-67.919
		c-0.214-5.884-3.003-8.078-6.221-12.007c3.218-3.921,6.221-7.854,6.221-13.004c0.072-21.087,0.143-42.173,0.214-63.26
		c-0.213-4.66-5.147-8.839-8.365-12.51c12.798-0.023,25.599,0.09,38.366,0.339c-3.21,3.581-6.85,7.678-7.063,12.312v63.881
		C449.56,348.37,452.559,351.973,455.768,355.537"/>
	<path clip-path="url(#SVGID_2_)" fill="#FFFFFF" d="M286.941,349.315c3.098-3.063,6.002-6.044,6.209-10.337v-55.739
		c0-4.315-3.732-7.961-6.829-10.886c12.047-0.943,24.223-1.757,36.49-2.441c-3.155,3.595-6.512,7.366-6.93,11.429v58.744
		c0,4.721,3.145,8.541,6.299,12.422c-3.364,3.386-6.299,5.362-6.299,11.436v60.993c10.624,2.2,21.322,4.063,32.074,5.587
		c4.243,0.606,8.07-3.171,11.263-6.394v33.366c-24.548-3.523-48.869-9.149-72.69-16.876c3.097-2.163,6.622-4.787,6.622-9.101V361.36
		C293.15,355.543,290.246,353.059,286.941,349.315"/>
	<path clip-path="url(#SVGID_2_)" fill="#FFFFFF" d="M615.895,257.036v67.277c19.728,22.504,39.455,46.549,59.183,66.026v57.228
		c0,5.59,4.745,10.986,8.933,15.15c-35.453,0-70.906-17.732-106.359-17.732c4.186-4.211,8.933-8.864,8.932-14.441v-70.348
		c10.329,12.936,25.404,28.545,40.479,36.323c-6.98,2.165-11.167,2.889-11.167,8.749v16.192c9.771,2.251,19.542,4.881,29.312,7.144
		c0.279-16.126,0.279-27.571,0-29.869c-22.519-25.877-45.038-53.688-67.556-74.347c5.583-4.442,8.653-8.299,8.932-13.604
		c0.001-21.496,0.001-49.133,0-72.302c0-5.59-4.745-10.987-8.932-15.151c35.453,0,70.906,17.733,106.359,17.733
		c-4.188,4.21-8.933,8.864-8.933,14.441v103.847c-10.329-12.656-25.405-28.545-40.479-36.323c6.979-2.165,11.166-2.889,11.166-8.749
		v-49.971C635.809,262.016,625.852,259.329,615.895,257.036"/>
	<path clip-path="url(#SVGID_2_)" fill="#FFFFFF" d="M255.659,426.5v-53.877c1.117-4.585,5.025-11.344,8.655-14.979
		c-3.909-0.192-13.958-1.352-32.942-18.288c9.492-8.658,20.937-16.273,33.22-19.4c-4.187-3.918-8.653-8.223-8.933-13.215v-72.86
		c0-5.595,5.025-10.83,9.212-14.983c-35.638,0-71.278,22.166-106.918,22.166c4.187,4.222,9.212,8.479,9.212,14.051v72.024
		c0,7.252-3.908,10.475-8.374,14.978c4.188,4.721,8.374,8.471,8.374,14.334v91.285c0,5.314-5.025,10.829-9.212,14.981
		c35.64,0,71.28-22.165,106.918-22.165C260.404,436.338,255.659,431.8,255.659,426.5 M226.348,418.636
		c-9.492,2.722-18.983,5.882-28.475,8.645v-28.475c0.279-10.41,4.188-21.588,11.166-32.975c5.77,3.235,11.538,6.443,17.309,9.814
		V418.636z M226.348,310.602c-5.305,15.125-21.216,28.891-28.754,43.898v-92.123c9.585-2.781,19.169-5.977,28.754-8.725V310.602z"/>
	<path clip-path="url(#SVGID_2_)" fill="#292A2D" d="M464.643,195.678c1.658-1.886,3.205-3.637,3.313-6.124v-25.715
		c-3.865-0.38-7.735-0.713-11.609-0.998v6.914c-0.001,2.643,1.66,3.505,4.536,5.48c-6.084,1.284-11.954,6.767-16.056,12.039V155.31
		c0-2.527-1.995-4.779-3.658-6.753c21.841,0.997,43.624,3.635,65.164,7.913c-1.64,1.474-3.61,3.158-3.61,5.574v30.527
		c-4.05-5.763-9.862-12.209-15.913-14.703c2.858-1.354,4.507-1.851,4.507-4.42v-6.726c-3.772-0.561-7.549-1.075-11.332-1.545v25.225
		c0,2.596,1.652,4.738,3.304,6.879c-1.762,1.794-3.304,2.888-3.304,6.228v40.31c0,2.475,1.982,4.678,3.634,6.613
		c-6.385-0.331-12.786-0.609-19.196-0.837c1.657-1.82,3.534-3.865,3.534-6.361v-40.696
		C467.957,199.167,466.41,197.803,464.643,195.678"/>
	<path clip-path="url(#SVGID_2_)" fill="#292A2D" d="M552.67,213.979c0.108-2.741,1.5-3.545,3.102-4.934
		c-1.496-1.987-2.993-3.99-3.102-6.227c0.001-11.932,0.001-22.76,0-29.058c0.215-1.926,1.927-3.164,3.529-4.284
		c-13.674-4.444-27.514-8.194-41.465-11.251c1.635,2.258,3.594,4.699,3.594,7.059v30.45c-0.107,2.339-1.741,3.958-3.268,5.502
		c1.745,2.287,3.269,3.588,3.268,6.773v38.475c0.001,2.36-1.959,4.313-3.594,5.969c13.951,1.095,27.791,2.438,41.465,4.029
		c-1.602-1.83-3.422-3.925-3.529-6.041C552.671,242.708,552.671,228.453,552.67,213.979 M541.288,199.92
		c0,2.377-1.615,3.851-3.233,5.359c1.726,2.276,3.233,3.589,3.233,6.647v30.807c-3.697-0.471-7.406-0.918-11.124-1.345v-31.47
		c0-3.124,1.408-3.922,3.138-5.552c-1.622-2.144-3.138-4.283-3.138-6.714V174.05c3.718,0.876,7.427,1.798,11.124,2.766V199.92z"/>
	<path clip-path="url(#SVGID_2_)" fill="#292A2D" d="M429.527,242.263c-3.106-12.112-6.213-24.223-9.32-36.313
		c3.218-3.555,7.434-8.871,12.536-11.691c-2.551-2.327-3.549-6.015-3.659-8.172v-31.319c0-2.409,1.996-4.658,3.659-6.513
		c-14.16-0.373-28.336-0.057-42.474,0.949c1.661,1.771,3.544,3.8,3.656,6.191v32.676c0,2.648-1.551,4.614-3.212,6.837
		c1.661,1.808,3.1,3.009,3.212,6.033v41.633c0,2.524-1.883,4.714-3.544,6.646c6.312-0.16,12.631-0.271,18.954-0.333
		c-1.553-1.76-3.439-3.889-3.55-6.293v-14.436c0.001-4.431,1.775-9.026,4.659-13.124c2.33,9.051,4.659,18.122,6.989,27.204
		c0,2.538-1.886,4.699-3.55,6.613c6.693-0.04,13.388-0.026,20.081,0.044C432.301,246.976,430.192,244.55,429.527,242.263
		 M416.99,191.504c-0.666,5.702-7.878,9.468-10.872,15.373v-45.593c3.623-0.115,7.247-0.189,10.872-0.221V191.504z"/>
	<path clip-path="url(#SVGID_2_)" fill="#292A2D" d="M376.444,202.032c0.112-3.132,1.547-4.484,3.205-6.6
		c-1.548-1.775-3.093-3.534-3.205-6.025v-32.872c0.222-2.273,1.989-4.451,3.649-6.487c-14.155,1.341-28.259,3.374-42.262,6.099
		c1.641,1.604,3.612,3.302,3.612,5.721v31.195c-0.109,2.433-1.753,4.591-3.285,6.608c1.751,1.805,3.285,2.702,3.285,5.967v39.416
		c0,2.42-1.971,4.735-3.612,6.655c14.003-0.976,28.107-1.704,42.262-2.184c-1.66-1.825-3.538-3.877-3.649-6.245V202.032z
		 M364.743,190.057c0,2.603-1.653,4.744-3.306,6.882c1.762,1.926,3.306,2.906,3.306,6.251v33.697
		c-3.784,0.22-7.564,0.462-11.339,0.726v-33.339c0-3.308,1.43-4.567,3.19-6.842c-1.651-1.792-3.19-3.577-3.19-6.15v-25.004
		c3.775-0.544,7.555-1.041,11.339-1.493V190.057z"/>
	<path clip-path="url(#SVGID_2_)" fill="#292A2D" d="M324.519,194.26c0-17.829,0.001-22.317,0-29.165
		c0-2.243,1.96-4.804,3.594-6.942c-14.062,3.07-28.01,6.845-41.792,11.322c1.604,1.119,3.422,2.436,3.531,4.505v28.617
		c0,2.321-1.5,4.327-3.102,6.557c1.602,1.277,2.993,2.085,3.102,4.714v36.462c0,2.213-1.822,4.309-3.423,6.138
		c6.09-0.708,12.212-1.366,18.362-1.975c-1.511-1.451-3.343-3.181-3.45-5.319v-12.913c-0.007-12.944,14.222-32.921,26.772-35.009
		C325.607,199.502,324.52,196.269,324.519,194.26 M312.25,198.02c-0.008,0.151-9.839,13.508-10.586,16.544v-38.201
		c3.52-0.92,7.048-1.799,10.586-2.635V198.02z"/>
	<path clip-path="url(#SVGID_2_)" fill="#2B2C30" d="M577.65,469.415v-9.089c-101.871,32.413-211.466,32.413-313.337,0v8.955
		c-31.177,0-62.355,18.605-93.534,18.605v44.198c31.179,0,62.357-18.606,93.534-18.606v8.868
		c101.871,32.413,211.466,32.413,313.337,0v-9.067c31.177,0.001,62.355,18.605,93.532,18.605v-43.863
		C640.006,488.021,608.827,469.416,577.65,469.415 M348.136,515.781c-2.956,0-5.352-2.396-5.352-5.354
		c0-2.956,2.396-5.352,5.352-5.352c2.957,0,5.353,2.396,5.353,5.352C353.489,513.384,351.093,515.781,348.136,515.781
		 M379.454,498.324c-2.678-0.257-5.346-0.537-8.012-0.845v12.377c2.363,0.272,4.734,0.524,7.108,0.757
		c0.001,1.646,0.001,3.294,0,4.939c-2.374-0.23-4.744-0.483-7.108-0.756v18.509c-1.801-0.207-3.598-0.427-5.394-0.657V491.88
		c4.449,0.572,8.92,1.073,13.406,1.503V498.324z M410.33,500.163c-2.703-0.065-5.402-0.155-8.1-0.27
		c-0.001,4.126-0.001,8.251,0,12.377c2.396,0.103,4.789,0.183,7.188,0.246c-0.001,1.647-0.001,3.295,0,4.941
		c-2.397-0.063-4.793-0.145-7.188-0.247c-0.001,4.523-0.001,9.047,0,13.57c2.698,0.114,5.398,0.205,8.1,0.27v4.939
		c-4.527-0.109-9.054-0.287-13.569-0.536c-0.001-13.589-0.001-27.179,0-40.768c4.514,0.247,9.041,0.428,13.569,0.535V500.163z
		 M443.948,505.712c-1.823,0.094-3.647,0.177-5.473,0.251v-3.578c0.003-1.627-0.799-2.407-2.394-2.352
		c-0.285,0.009-0.569,0.019-0.856,0.027c-1.559,0.051-2.338,0.885-2.338,2.511c-0.002,2.252-0.002,4.504,0,6.758
		c0,0.757,0.151,1.264,0.456,1.519c0.302,0.258,0.8,0.584,1.482,0.979c1.731,0.873,3.46,1.736,5.19,2.59
		c1.139,0.593,1.947,1.057,2.421,1.394c0.48,0.335,0.844,0.752,1.11,1.248c0.267,0.499,0.399,1.467,0.4,2.905v8.688
		c-0.002,4.576-2.2,6.998-6.609,7.165c-1.124,0.041-2.246,0.078-3.367,0.11c-4.379,0.125-6.565-2.356-6.565-7.351v-2.044
		c1.827-0.026,3.653-0.064,5.481-0.112c-0.002,0.738-0.002,1.477,0,2.215c0,1.588,0.817,2.364,2.454,2.312
		c0.322-0.011,0.646-0.021,0.967-0.032c1.447-0.051,2.168-0.877,2.167-2.466v-6.928c-0.001-0.758-0.15-1.262-0.457-1.515
		c-0.304-0.254-0.794-0.575-1.479-0.968c-1.73-0.903-3.46-1.819-5.192-2.743c-1.142-0.579-1.971-1.075-2.483-1.482
		c-0.514-0.406-0.885-0.94-1.113-1.6c-0.232-0.66-0.344-1.518-0.344-2.579v-8.346c0-4.659,2.189-7.003,6.565-7.128
		c1.143-0.033,2.281-0.072,3.422-0.114c4.369-0.165,6.557,2.032,6.555,6.692V505.712z M475.914,496.821
		c-1.721,0.221-3.443,0.432-5.171,0.632c0.001,11.942,0.001,23.885,0,35.827c-1.801,0.208-3.604,0.405-5.411,0.591v-35.827
		c-1.731,0.177-3.465,0.344-5.201,0.501c0.001-1.646,0.001-3.293,0-4.94c5.283-0.477,10.546-1.051,15.783-1.724V496.821z
		 M493.826,515.781c-2.955,0-5.354-2.396-5.354-5.354c0-2.956,2.398-5.352,5.354-5.352c2.957,0,5.354,2.396,5.354,5.352
		C499.18,513.384,496.783,515.781,493.826,515.781"/>
</g>
</svg>
